<?xml version="1.0" standalone="no"?><!DOCTYPE svg PUBLIC "-//W3C//DTD SVG 1.1//EN" "http://www.w3.org/Graphics/SVG/1.1/DTD/svg11.dtd"><svg t="1689225770862" class="icon" viewBox="0 0 1024 1024" version="1.1" xmlns="http://www.w3.org/2000/svg" p-id="3072" xmlns:xlink="http://www.w3.org/1999/xlink" width="200" height="200"><path d="M512.001 512.001m-512 0a512 512 0 1 0 1024 0 512 512 0 1 0-1024 0Z" fill="#84aeff" p-id="3073" data-spm-anchor-id="a313x.7781069.0.i12" class="selected"></path><path d="M438.54 624.31L733.64 312.81c18.5-19.5 49.3-20.3 68.8-1.8s20.3 49.3 1.8 68.8L478.44 723.81c-18.5 19.5-49.3 20.4-68.8 1.9-1.4-1.3-2.7-2.7-3.9-4.2L223.14 502.31c-17.2-20.7-14.4-51.3 6.2-68.6 20.7-17.2 51.3-14.4 68.6 6.2l154.4 185.3c-3.4-0.7-6.8-1.1-10.2-1.1l-3.6 0.2z" fill="#ffffff" p-id="3074" data-spm-anchor-id="a313x.7781069.0.i13" class="selected"></path></svg>