<?xml version="1.0" standalone="no"?><!DOCTYPE svg PUBLIC "-//W3C//DTD SVG 1.1//EN" "http://www.w3.org/Graphics/SVG/1.1/DTD/svg11.dtd">
<svg t="1689407074234" class="icon" viewBox="0 0 1024 1024" version="1.1"
    xmlns="http://www.w3.org/2000/svg" p-id="6388" data-spm-anchor-id="a313x.7781069.0.i1"
    xmlns:xlink="http://www.w3.org/1999/xlink" width="200" height="200">
    <path d="M507.408072 50.511211c-252.556054 0-459.192825 206.636771-459.192825 459.192825s206.636771 459.192825 459.192825 459.192825 459.192825-206.636771 459.192825-459.192825-206.636771-459.192825-459.192825-459.192825m220.412556 353.578475L461.488789 670.421525c-9.183857 9.183857-18.367713 9.183857-27.551569 9.183856-9.183857 0-18.367713-4.591928-27.55157-9.183856l-114.798206-114.798207c-13.775785-13.775785-13.775785-41.327354 0-55.103139 13.775785-13.775785 41.327354-13.775785 55.103139 0l87.246637 87.246637 238.780269-238.780269c13.775785-13.775785 41.327354-13.775785 55.103139 0 13.775785 13.775785 13.775785 36.735426 0 55.103139" fill="#2E82FF" fill-opacity="1.0" p-id="6389" data-spm-anchor-id="a313x.7781069.0.i0" class=""></path>
</svg>