<?xml version="1.0" standalone="no"?><!DOCTYPE svg PUBLIC "-//W3C//DTD SVG 1.1//EN" "http://www.w3.org/Graphics/SVG/1.1/DTD/svg11.dtd"><svg t="1675229718367" class="icon" viewBox="0 0 1057 1024" version="1.1" xmlns="http://www.w3.org/2000/svg" p-id="24964" xmlns:xlink="http://www.w3.org/1999/xlink" width="132.125" height="128"><path d="M610.75268802 620.38709656m-61.93548375 0a61.93548375 61.93548375 0 1 0 123.8709675 0 61.93548375 61.93548375 0 1 0-123.8709675 0Z" fill="#343231" p-id="24965"></path><path d="M951.39784958 403.61290344V124.90322563a92.90322562 92.90322562 0 0 0-92.90322562-92.90322563H223.65591364A170.63225813 170.63225813 0 0 0 53.33333333 202.32258031v619.35483938A170.63225813 170.63225813 0 0 0 223.65591364 992h557.41935563a170.63225813 170.63225813 0 0 0 170.32258031-170.32258031V775.22580688a232.25806406 232.25806406 0 0 0 0-371.61290344zM223.65591364 93.93548375H858.49462395a30.96774187 30.96774187 0 0 1 30.96774188 30.96774187v191.38064532A92.90322562 92.90322562 0 0 0 858.49462395 310.70967781V155.8709675a30.96774187 30.96774187 0 0 0-30.96774187-30.96774187H177.20430083a30.96774187 30.96774187 0 0 0-30.96774187 30.96774187v122.01290344A108.38709656 108.38709656 0 0 1 223.65591364 93.93548375zM827.52688208 186.83870938H177.20430083V155.8709675h650.32258125z m0 30.96774187v30.96774187H177.20430083V217.80645125z m0 61.93548469v30.96774187H223.65591364A107.45806406 107.45806406 0 0 1 177.20430083 299.8709675V279.74193594z m61.93548375 541.93548375a108.38709656 108.38709656 0 0 1-108.38709656 108.38709656h-557.41935563A108.38709656 108.38709656 0 0 1 115.26881708 821.67741969V333.62580687A169.39354875 169.39354875 0 0 0 223.65591364 372.64516156H858.49462395a30.96774187 30.96774187 0 0 1 30.96774188 30.96774188v61.93548375h-278.70967781a154.83870938 154.83870938 0 1 0 0 309.67741969h278.70967781z m39.63870937-108.3870975H610.75268802a92.90322562 92.90322562 0 1 1 0-185.80645125h278.70967781a63.79354875 63.79354875 0 0 0 49.54838719-24.77419313 61.93548375 61.93548375 0 0 0 7.741935-14.24516156v-1.858065a170.63225813 170.63225813 0 0 1-17.65161282 226.68387094z" fill="#343231" p-id="24966"></path></svg>