<?xml version="1.0" standalone="no"?><!DOCTYPE svg PUBLIC "-//W3C//DTD SVG 1.1//EN" "http://www.w3.org/Graphics/SVG/1.1/DTD/svg11.dtd"><svg t="1684216639114" class="icon" viewBox="0 0 1024 1024" version="1.1" xmlns="http://www.w3.org/2000/svg" p-id="14736" xmlns:xlink="http://www.w3.org/1999/xlink" width="200" height="200"><path d="M225.891 915V56.016h322.265c65.625 0 118.164 8.789 157.617 26.367 39.844 17.187 70.899 43.945 93.165 80.273 22.656 35.938 33.984 73.633 33.984 113.086 0 36.719-9.961 71.289-29.883 103.711-19.922 32.422-50 58.594-90.234 78.516 51.953 15.234 91.797 41.211 119.531 77.929 28.125 36.719 42.187 80.079 42.187 130.079 0 40.234-8.593 77.734-25.781 112.5-16.797 34.375-37.695 60.937-62.695 79.687s-56.445 33.008-94.336 42.774C654.211 910.312 608.117 915 553.43 915H225.891z m113.671-498.047h185.743c50.39 0 86.523-3.32 108.398-9.961 28.906-8.594 50.586-22.851 65.039-42.773 14.844-19.922 22.266-44.922 22.266-75 0-28.516-6.836-53.516-20.508-75-13.672-21.875-33.203-36.719-58.594-44.531-25.39-8.204-68.945-12.305-130.664-12.305h-171.68v259.57z m0 396.68H553.43c36.718 0 62.5-1.367 77.343-4.102 26.172-4.687 48.047-12.5 65.625-23.437 17.579-10.938 32.032-26.758 43.36-47.461 11.328-21.094 16.992-45.313 16.992-72.656 0-32.032-8.203-59.766-24.609-83.204-16.407-23.828-39.258-40.429-68.555-49.804-28.906-9.766-70.703-14.649-125.391-14.649H339.562v295.313z" fill="#707070" p-id="14737"></path></svg>